<?xml version="1.0" encoding="utf-8"?>
<!-- Generator: Adobe Illustrator 22.1.0, SVG Export Plug-In . SVG Version: 6.00 Build 0)  -->
<svg version="1.1" id="Layer_1" xmlns="http://www.w3.org/2000/svg" xmlns:xlink="http://www.w3.org/1999/xlink" x="0px" y="0px"
	 viewBox="0 0 100 100" style="enable-background:new 0 0 100 100;" xml:space="preserve">
<style type="text/css">
	.st0{fill:#03b381;}
</style>
<title>logo-circle-riot</title>
<g id="Layer_2_1_">
	<g id="Layer_1-2">
		<path class="st0" d="M50,0C22.4,0,0,22.4,0,50s22.4,50,50,50s50-22.4,50-50S77.6,0,50,0z M37.9,26.1c3.8,0,6.9,3.1,6.9,6.9
			s-3.1,6.9-6.9,6.9c-3.8,0-6.9-3.1-6.9-6.8C31,29.2,34,26.1,37.9,26.1C37.8,26.1,37.9,26.1,37.9,26.1z M68.4,68.8
			c-0.5,1.8-1.7,3.4-3.4,4.2l-0.2,0.1c-0.3,0.1-0.6,0.3-0.9,0.4h-0.2c-0.3,0.1-0.6,0.1-0.9,0.2h-0.1c-0.3,0-0.6,0.1-0.9,0.1h-0.2
			c-0.2,0-0.3,0-0.5,0h-0.3c-0.2,0-0.3-0.1-0.5-0.1h-0.2c-0.2-0.1-0.5-0.1-0.7-0.2l-0.1-0.1c-0.2-0.1-0.4-0.1-0.5-0.2l-0.2-0.1
			c-0.1-0.1-0.3-0.2-0.4-0.2L58,72.7l-0.4-0.3l-0.2-0.2L57,71.9c0-0.1-0.1-0.1-0.2-0.2s-0.3-0.4-0.5-0.6L46,56.5
			c-0.2-0.2-0.3-0.4-0.5-0.7c-2-3.2-1-7.5,2.2-9.4s7.5-1,9.4,2.2l5.4,7.7l0,0l4.9,6.9c0.2,0.4,0.5,0.8,0.6,1.2
			c0.3,0.8,0.5,1.6,0.5,2.5C68.6,67.6,68.5,68.2,68.4,68.8z M64.1,54.9l-5.2-7.4c-2.8-4-8.4-4.9-12.4-2.1c-3.6,2.6-4.8,7.5-2.6,11.4
			c0.2,0.3,0.4,0.5,0.5,0.8l1.9,2.7h-1.6v6.9c0.2,3.8-2.8,7-6.6,7.1s-7-2.8-7.1-6.6c0,0,0,0,0-0.1c0-0.2,0-0.3,0-0.5V38.6
			c3.1,3.8,8.7,4.4,12.5,1.3c3.8-3.1,4.4-8.7,1.3-12.5c-0.4-0.4-0.8-0.9-1.2-1.2h8.1c9.4,0,17.1,7.6,17.1,17.1
			C68.7,47.6,67,51.8,64.1,54.9z"/>
	</g>
</g>
</svg>
